<svg width="18" height="18" viewBox="0 0 18 18" fill="none" xmlns="http://www.w3.org/2000/svg">
<path d="M18 9.05423C17.9997 7.32372 17.5067 5.62952 16.5792 4.1722C15.6517 2.71488 14.3286 1.55547 12.7666 0.831222C11.2046 0.106977 9.46907 -0.151772 7.76544 0.085607C6.06182 0.322986 4.46147 1.04655 3.15384 2.17065C1.84622 3.29474 0.886079 4.77229 0.3871 6.42837C-0.11188 8.08445 -0.128809 9.84971 0.338319 11.5152C0.805446 13.1806 1.73707 14.6765 3.02289 15.8258C4.30872 16.9751 5.8949 17.7296 7.59365 18V11.6717H5.30883V9.05423H7.59365V7.05884C7.59365 4.78943 8.93739 3.53582 10.9929 3.53582C11.6679 3.54525 12.3413 3.60433 13.0077 3.7126V5.94107H11.873C11.5311 5.89555 11.1852 5.98846 10.9114 6.19939C10.6376 6.41031 10.4582 6.72199 10.4126 7.06593C10.4001 7.16215 10.3981 7.25946 10.4067 7.35611V9.05423H12.9029L12.5037 11.6717H10.4063V18C12.5235 17.663 14.4515 16.5768 15.8436 14.9369C17.2357 13.2969 18.0003 11.2109 18 9.05423Z" fill="#999999"/>
</svg>
