<svg width="18" height="18" viewBox="0 0 18 18" fill="none" xmlns="http://www.w3.org/2000/svg">
<path fill-rule="evenodd" clip-rule="evenodd" d="M9 1.62161C11.403 1.62161 11.6878 1.63093 12.6366 1.674C13.2074 1.68093 13.7728 1.78574 14.3081 1.98386C14.6961 2.13372 15.0486 2.36309 15.3427 2.65725C15.6369 2.95141 15.8663 3.30385 16.0161 3.69193C16.2143 4.22725 16.3191 4.79259 16.326 5.36336C16.3691 6.31221 16.3784 6.597 16.3784 9C16.3784 11.403 16.3691 11.6878 16.326 12.6366C16.3191 13.2074 16.2143 13.7728 16.0161 14.3081C15.8663 14.6961 15.6369 15.0486 15.3427 15.3427C15.0486 15.6369 14.6961 15.8663 14.3081 16.0161C13.7728 16.2143 13.2074 16.3191 12.6366 16.326C11.6878 16.3691 11.4033 16.3784 9 16.3784C6.59668 16.3784 6.31221 16.3691 5.36336 16.326C4.79259 16.3191 4.22725 16.2143 3.69193 16.0161C3.30385 15.8663 2.95141 15.6369 2.65725 15.3427C2.36309 15.0486 2.13372 14.6961 1.98386 14.3081C1.78574 13.7728 1.68093 13.2074 1.674 12.6366C1.63093 11.6878 1.62161 11.403 1.62161 9C1.62161 6.597 1.63093 6.31221 1.674 5.36336C1.68093 4.79259 1.78574 4.22725 1.98386 3.69193C2.13372 3.30385 2.36309 2.95141 2.65725 2.65725C2.95141 2.36309 3.30385 2.13372 3.69193 1.98386C4.22725 1.78574 4.79259 1.68093 5.36336 1.674C6.31221 1.63093 6.597 1.62161 9 1.62161ZM9 0C6.55714 0 6.24921 0.0102858 5.28943 0.0540001C4.54247 0.0686937 3.80342 0.209983 3.10371 0.471857C2.50603 0.703381 1.96327 1.05715 1.51018 1.51051C1.0571 1.96388 0.703659 2.50685 0.4725 3.10468C0.210626 3.80438 0.0693365 4.54344 0.0546429 5.29039C0.0102857 6.24921 0 6.55714 0 9C0 11.4429 0.0102858 11.7508 0.0540001 12.7106C0.0686937 13.4575 0.209983 14.1966 0.471857 14.8963C0.703198 15.4941 1.05682 16.037 1.51007 16.4902C1.96333 16.9435 2.50624 17.2971 3.10404 17.5285C3.80374 17.7903 4.54279 17.9316 5.28975 17.9463C6.24921 17.9897 6.55714 18 9 18C11.4429 18 11.7508 17.9897 12.7106 17.946C13.4575 17.9313 14.1966 17.79 14.8963 17.5281C15.4941 17.2968 16.037 16.9432 16.4902 16.4899C16.9435 16.0367 17.2971 15.4938 17.5285 14.896C17.7903 14.1963 17.9316 13.4572 17.9463 12.7102C17.9897 11.7508 18 11.4429 18 9C18 6.55714 17.9897 6.24921 17.946 5.28943C17.9313 4.54247 17.79 3.80342 17.5281 3.10371C17.2966 2.50603 16.9429 1.96327 16.4895 1.51018C16.0361 1.0571 15.4931 0.703659 14.8953 0.4725C14.1956 0.210626 13.4566 0.0693365 12.7096 0.0546429C11.7508 0.0102857 11.4429 0 9 0ZM9 4.3785C8.08595 4.3785 7.19243 4.64955 6.43243 5.15737C5.67243 5.66518 5.08008 6.38696 4.73029 7.23143C4.3805 8.0759 4.28898 9.00513 4.4673 9.90161C4.64562 10.7981 5.08578 11.6216 5.7321 12.2679C6.37843 12.9142 7.20191 13.3544 8.09839 13.5327C8.99487 13.711 9.9241 13.6195 10.7686 13.2697C11.613 12.9199 12.3348 12.3276 12.8426 11.5676C13.3505 10.8076 13.6215 9.91405 13.6215 9C13.6215 7.7743 13.1346 6.59881 12.2679 5.73211C11.4012 4.86541 10.2257 4.3785 9 4.3785ZM9 11.9999C8.40668 11.9999 7.82668 11.824 7.33335 11.4943C6.84002 11.1647 6.45551 10.6962 6.22846 10.148C6.0014 9.59985 5.942 8.99667 6.05775 8.41475C6.1735 7.83283 6.45921 7.2983 6.87875 6.87876C7.2983 6.45922 7.83283 6.1735 8.41475 6.05775C8.99667 5.942 9.59985 6.00141 10.148 6.22846C10.6962 6.45552 11.1647 6.84002 11.4943 7.33335C11.824 7.82668 11.9999 8.40668 11.9999 9C11.9999 9.39397 11.9224 9.78408 11.7716 10.1481C11.6209 10.512 11.3999 10.8428 11.1213 11.1213C10.8428 11.3999 10.512 11.6209 10.1481 11.7716C9.78407 11.9224 9.39396 11.9999 9 11.9999ZM14.8841 4.19592C14.8841 4.79239 14.4005 5.27592 13.8041 5.27592C13.2076 5.27592 12.7241 4.79239 12.7241 4.19592C12.7241 3.59945 13.2076 3.11592 13.8041 3.11592C14.4005 3.11592 14.8841 3.59945 14.8841 4.19592Z" fill="#999999"/>
</svg>
