<svg width="24" height="24" viewBox="0 0 24 24" fill="none" xmlns="http://www.w3.org/2000/svg">
<path fill-rule="evenodd" clip-rule="evenodd" d="M12 24C18.6274 24 24 18.6274 24 12C24 5.37258 18.6274 0 12 0C5.37258 0 0 5.37258 0 12C0 18.6274 5.37258 24 12 24ZM6.01614 16.89H9.00463V9.11993H6.01614V16.89ZM7.48707 7.92454H7.505C8.44339 7.92454 9.02734 7.23898 9.02794 6.46257C9.00941 5.66823 8.44339 5 7.52234 5C6.60248 5 6 5.64731 6 6.44165C6 7.21806 6.58395 7.92454 7.48707 7.92454ZM13.1885 12.7061C13.1885 12.0463 13.7235 11.5107 14.3839 11.5107C15.0444 11.5107 15.5793 12.0463 15.5793 12.7061V16.89H18.5678V12.9129C18.5678 10.4265 17.3126 9.14503 15.5422 9.14503C14.1137 9.14503 13.1885 10.0075 13.1885 10.0075V9.11993H10.2C10.2353 9.71763 10.2 16.89 10.2 16.89H13.1885V12.7061Z" fill="white"/>
</svg>
