<svg width="20" height="18" viewBox="0 0 20 18" fill="none" xmlns="http://www.w3.org/2000/svg">
<path d="M18.5197 0H1.19812C0.754733 0 0.400024 0.3375 0.400024 0.759375V17.2688C0.400024 17.6625 0.754733 18 1.19812 18H18.5493C18.9927 18 19.3474 17.6625 19.3474 17.2406V0.759375C19.3178 0.3375 18.9631 0 18.5197 0ZM6.01625 15.3281H3.20814V6.75H6.01625V15.3281ZM4.59741 5.56875C3.71064 5.56875 2.97166 4.86562 2.97166 4.02187C2.97166 3.17813 3.71064 2.475 4.59741 2.475C5.48419 2.475 6.22316 3.17813 6.22316 4.02187C6.22316 4.89375 5.51374 5.56875 4.59741 5.56875ZM16.5097 15.3281H13.7016V11.1656C13.7016 10.1813 13.6721 8.8875 12.2532 8.8875C10.8048 8.8875 10.5683 9.98438 10.5683 11.0813V15.3281H7.76023V6.75H10.4501V7.93125H10.4797C10.8639 7.25625 11.7803 6.55312 13.14 6.55312C15.9777 6.55312 16.5097 8.325 16.5097 10.6312V15.3281Z" fill="#999999"/>
</svg>
