<svg width="133" height="26" viewBox="0 0 133 26" fill="none" xmlns="http://www.w3.org/2000/svg">
<path d="M35.3372 13.4053C35.3372 12.2596 35.5283 11.2103 35.9213 10.2467C36.3143 9.28304 36.8666 8.43718 37.5676 7.73052C38.2793 7.01315 39.1077 6.45638 40.0636 6.04951C41.0196 5.64264 42.0711 5.43921 43.2288 5.43921C44.3546 5.43921 45.4062 5.64264 46.3727 6.04951C47.3392 6.45638 48.1783 7.01315 48.8899 7.73052C49.6016 8.44789 50.1539 9.28304 50.5362 10.2467C50.9292 11.2103 51.1204 12.2596 51.1204 13.4053C51.1204 14.5509 50.9292 15.6002 50.5362 16.5638C50.1433 17.5275 49.591 18.3733 48.8899 19.08C48.1783 19.7974 47.3392 20.3541 46.3727 20.761C45.4062 21.1679 44.3546 21.3713 43.2288 21.3713C42.0817 21.3713 41.0196 21.1679 40.0636 20.761C39.1077 20.3541 38.2793 19.7974 37.5676 19.08C36.856 18.3626 36.3037 17.5275 35.9213 16.5638C35.5283 15.6002 35.3372 14.5509 35.3372 13.4053ZM38.7891 13.4053C38.7891 14.0905 38.8953 14.7222 39.1183 15.2897C39.3308 15.8572 39.6388 16.3497 40.0318 16.7673C40.4248 17.1848 40.8921 17.5061 41.4338 17.7309C41.9755 17.9558 42.5809 18.0735 43.2394 18.0735C43.8979 18.0735 44.5033 17.9558 45.045 17.7309C45.5867 17.5061 46.0541 17.1848 46.447 16.7673C46.84 16.3497 47.1374 15.8572 47.3605 15.2897C47.5729 14.7222 47.6897 14.0905 47.6897 13.4053C47.6897 12.72 47.5835 12.099 47.3605 11.5208C47.1481 10.9533 46.84 10.4608 46.447 10.0432C46.0541 9.62567 45.5867 9.30446 45.045 9.07961C44.5033 8.85476 43.8979 8.73698 43.2394 8.73698C42.5809 8.73698 41.9755 8.85476 41.4338 9.07961C40.8921 9.30446 40.4248 9.62567 40.0318 10.0432C39.6388 10.4608 39.3414 10.9533 39.1183 11.5208C38.9059 12.099 38.7891 12.72 38.7891 13.4053Z" fill="black"/>
<path d="M95.6025 21.1143V19.7224C95.1139 20.2042 94.6678 20.5575 93.9031 20.868C93.0215 21.2321 92.0974 21.3606 91.0672 21.3606C89.9201 21.3606 88.8685 21.1786 87.9339 20.8038C86.9992 20.4291 86.192 19.8937 85.5228 19.1977C84.8537 18.5018 84.3332 17.6666 83.9615 16.6923C83.5897 15.718 83.4092 14.6151 83.4092 13.3945C83.4092 12.1953 83.5897 11.1032 83.9615 10.1182C84.3332 9.13312 84.8537 8.29797 85.5228 7.60201C86.192 6.90605 86.9886 6.3707 87.9339 5.99595C88.8685 5.6212 89.9094 5.43918 91.0672 5.43918C92.0337 5.43918 92.9046 5.64262 93.7012 5.93171C94.5191 6.24221 95.1139 6.65979 95.6025 7.15231V0.428282C95.6025 0.396161 95.6237 0.36404 95.6556 0.36404L98.9269 0C98.9694 0 99.0013 0.0214141 99.0013 0.0642424V21.1143C99.0013 21.1464 98.9694 21.1786 98.9376 21.1786H95.6662C95.6343 21.1786 95.6025 21.1571 95.6025 21.1143ZM95.6662 13.4052C95.6662 12.7414 95.56 12.1204 95.3369 11.5529C95.1245 10.9854 94.8271 10.4929 94.4447 10.0753C94.0624 9.65776 93.6057 9.33655 93.0533 9.09029C92.5117 8.85473 91.8956 8.73696 91.2159 8.73696C90.5361 8.73696 89.9201 8.85473 89.3784 9.09029C88.8367 9.32584 88.3693 9.65776 87.9763 10.0753C87.5834 10.4929 87.286 10.9854 87.0629 11.5529C86.8505 12.1204 86.7443 12.7414 86.7443 13.4052C86.7443 14.0691 86.8505 14.6901 87.0629 15.2576C87.2753 15.825 87.5834 16.3176 87.9763 16.7351C88.3693 17.1527 88.8367 17.4739 89.3784 17.7202C89.9201 17.9557 90.5361 18.0735 91.2159 18.0735C91.8956 18.0735 92.5117 17.9557 93.0533 17.7202C93.595 17.4846 94.0624 17.1527 94.4447 16.7351C94.8271 16.3176 95.1245 15.825 95.3369 15.2576C95.5494 14.6901 95.6662 14.0691 95.6662 13.4052Z" fill="black"/>
<path d="M104.014 14.5937C104.099 15.0863 104.269 15.5574 104.524 15.9749C104.779 16.4032 105.108 16.778 105.501 17.0992C105.894 17.4204 106.33 17.6774 106.808 17.8594C107.286 18.0414 107.806 18.1378 108.369 18.1378C109.155 18.1378 109.846 18.0093 110.451 17.763C111.024 17.5275 111.481 17.1741 111.81 16.7137C111.842 16.6709 111.885 16.6495 111.938 16.6495H115.772C115.836 16.6495 115.878 16.7137 115.857 16.7673C115.592 17.4204 115.231 18.0307 114.774 18.5768C114.285 19.1549 113.722 19.6582 113.064 20.065C112.405 20.4826 111.672 20.8038 110.876 21.0287C110.069 21.2535 109.24 21.3713 108.38 21.3713C107.265 21.3713 106.234 21.1679 105.268 20.7503C104.301 20.3327 103.462 19.7652 102.751 19.0586C102.039 18.3412 101.476 17.4954 101.072 16.521C100.658 15.5467 100.456 14.5081 100.456 13.4053C100.456 12.3024 100.658 11.2746 101.062 10.2895C101.465 9.31516 102.018 8.46931 102.729 7.75193C103.441 7.03456 104.269 6.46709 105.225 6.06022C106.181 5.64264 107.201 5.43921 108.295 5.43921C109.389 5.43921 110.408 5.64264 111.364 6.06022C112.32 6.47779 113.159 7.04527 113.86 7.75193C114.572 8.46931 115.124 9.31516 115.528 10.2895C115.932 11.2638 116.133 12.3024 116.133 13.4053C116.133 13.8014 116.101 14.1869 116.048 14.5402C116.048 14.5616 116.027 14.583 115.995 14.583H104.014V14.5937ZM108.274 8.6192C107.785 8.6192 107.307 8.69415 106.872 8.85476C106.425 9.01536 106.032 9.2188 105.671 9.47577C105.31 9.73274 105.002 10.0432 104.747 10.4073C104.492 10.7713 104.301 11.1461 104.174 11.5422H112.384C112.257 11.1461 112.065 10.7713 111.81 10.4073C111.556 10.0432 111.248 9.73274 110.886 9.47577C110.525 9.2188 110.122 9.00466 109.686 8.85476C109.24 8.69415 108.773 8.6192 108.274 8.6192Z" fill="black"/>
<path d="M66.0964 21.1786H62.825C62.7931 21.1786 62.7613 21.1465 62.7613 21.1144V19.701C62.4108 20.1828 60.8919 21.3606 58.534 21.3606C56.6009 21.3606 55.1246 20.8146 54.1261 19.7117C53.1171 18.6089 52.6179 17.0243 52.6179 14.9578V5.6962C52.6179 5.66408 52.6498 5.63196 52.6816 5.63196H55.9424C55.9743 5.63196 56.0061 5.66408 56.0061 5.6962V14.219C56.0061 15.5895 56.2929 16.5853 56.8558 17.2063C57.4187 17.8273 58.2578 18.1378 59.3731 18.1378C60.4883 18.1378 61.3593 17.6667 61.9328 16.9493C62.5064 16.2212 62.7613 15.3111 62.7613 14.219V5.6962C62.7613 5.66408 62.7931 5.63196 62.825 5.63196H66.0964C66.1282 5.63196 66.1601 5.66408 66.1601 5.6962V21.1251C66.1601 21.1572 66.1388 21.1786 66.0964 21.1786Z" fill="black"/>
<path d="M35.4008 6.62768V5.5998C35.4008 5.5998 35.1141 5.4499 34.6573 5.4499C32.0445 5.43919 30.7806 6.63838 30.4301 7.10949V5.69616C30.4301 5.66404 30.3982 5.63192 30.3663 5.63192H27.095C27.0631 5.63192 27.0312 5.66404 27.0312 5.69616V21.1143C27.0312 21.1464 27.0631 21.1786 27.095 21.1786H30.3982C30.4301 21.1786 30.4619 21.1464 30.4619 21.1143C30.4619 19.0157 30.4619 16.0606 30.4619 13.9727C30.4619 13.4159 30.4619 12.8699 30.5044 12.3131C30.5575 11.5636 30.7912 10.8784 31.2585 10.2895C31.5453 9.92545 31.9064 9.64706 32.31 9.43292C32.8411 9.16525 33.4147 9.02606 34.0201 9.04747C34.3918 9.05818 34.9441 9.0903 35.3159 9.21878C35.3477 9.22949 35.3796 9.20808 35.3796 9.17595C35.3796 9.0903 35.3796 8.92969 35.3902 8.76909C35.4008 8.54424 35.4008 6.62768 35.4008 6.62768Z" fill="black"/>
<path d="M129.601 21.1143V19.7224C129.113 20.2042 128.667 20.5575 127.902 20.868C127.02 21.2321 126.096 21.3606 125.066 21.3606C123.919 21.3606 122.867 21.1786 121.933 20.8038C120.998 20.4291 120.191 19.8937 119.522 19.1977C118.852 18.5018 118.332 17.6666 117.96 16.6923C117.589 15.718 117.408 14.6151 117.408 13.3945C117.408 12.1953 117.589 11.1032 117.96 10.1182C118.332 9.13312 118.852 8.29797 119.522 7.60201C120.191 6.90605 120.987 6.3707 121.933 5.99595C122.867 5.6212 123.908 5.43918 125.066 5.43918C126.032 5.43918 126.903 5.64262 127.7 5.93171C128.518 6.24221 129.113 6.65979 129.601 7.15231V0.428282C129.601 0.396161 129.622 0.36404 129.654 0.36404L132.926 0C132.968 0 133 0.0214141 133 0.0642424V21.1143C133 21.1464 132.968 21.1786 132.936 21.1786H129.676C129.633 21.1786 129.601 21.1571 129.601 21.1143ZM129.665 13.4052C129.665 12.7414 129.559 12.1204 129.336 11.5529C129.123 10.9854 128.826 10.4929 128.444 10.0753C128.061 9.65776 127.604 9.33655 127.052 9.09029C126.51 8.85473 125.894 8.73696 125.215 8.73696C124.535 8.73696 123.919 8.85473 123.377 9.09029C122.835 9.32584 122.368 9.65776 121.975 10.0753C121.582 10.4929 121.285 10.9854 121.062 11.5529C120.849 12.1204 120.743 12.7414 120.743 13.4052C120.743 14.0691 120.849 14.6901 121.062 15.2576C121.274 15.825 121.582 16.3176 121.975 16.7351C122.368 17.1527 122.835 17.4739 123.377 17.7202C123.919 17.9557 124.535 18.0735 125.215 18.0735C125.894 18.0735 126.51 17.9557 127.052 17.7202C127.594 17.4846 128.061 17.1527 128.444 16.7351C128.826 16.3176 129.123 15.825 129.336 15.2576C129.559 14.6901 129.665 14.0691 129.665 13.4052Z" fill="black"/>
<path d="M68.4862 5.63197H71.7576C71.7894 5.63197 71.8213 5.66409 71.8213 5.69621V7.10954C72.1718 6.62773 73.6907 5.44995 76.0486 5.44995C77.9817 5.44995 79.458 5.99601 80.4564 7.09884C81.4655 8.20166 81.9647 9.78631 81.9647 11.8528V21.1251C81.9647 21.1572 81.9328 21.1893 81.9009 21.1893H78.6296C78.5977 21.1893 78.5658 21.1572 78.5658 21.1251V12.6023C78.5658 11.2318 78.2791 10.236 77.7161 9.615C77.1532 8.99399 76.3141 8.68348 75.1989 8.68348C74.0836 8.68348 73.2127 9.15459 72.6391 9.87196C72.0656 10.6 71.8107 11.5101 71.8107 12.6023V21.1251C71.8107 21.1572 71.7788 21.1893 71.747 21.1893H68.4756C68.4437 21.1893 68.4119 21.1572 68.4119 21.1251V5.69621C68.4225 5.66409 68.4437 5.63197 68.4862 5.63197Z" fill="black"/>
<path d="M13.1491 8.0945C12.6817 8.0945 12.2569 7.91248 11.9276 7.58056L8.97491 4.604C8.64565 4.28279 8.46509 3.8438 8.46509 3.37269C8.46509 2.90158 8.64565 2.4733 8.97491 2.14138C9.30417 1.80946 9.73965 1.62744 10.1964 1.62744C10.6637 1.62744 11.0886 1.80946 11.4178 2.14138L14.3705 5.11794C15.0503 5.80319 15.0503 6.90602 14.3705 7.59127C14.0519 7.91248 13.6164 8.0945 13.1491 8.0945Z" fill="#FF2A4E"/>
<path d="M13.1491 25.183C12.6817 25.183 12.2569 25.001 11.9276 24.6691L8.97491 21.6925C8.64565 21.3606 8.46509 20.9216 8.46509 20.4612C8.46509 19.9901 8.64565 19.5618 8.97491 19.2299C9.30417 18.898 9.73965 18.7159 10.1964 18.7159C10.6637 18.7159 11.0886 18.898 11.4178 19.2299L14.3705 22.2064C14.6998 22.5384 14.8804 22.9773 14.8804 23.4378C14.8804 23.9089 14.6998 24.3371 14.3705 24.6691C14.0519 25.001 13.6164 25.183 13.1491 25.183Z" fill="#7CD300"/>
<path d="M18.6722 16.6388C18.2049 16.6388 17.78 16.4568 17.4507 16.1249C17.1215 15.793 16.9409 15.354 16.9409 14.8936C16.9409 14.4225 17.1215 13.9942 17.4507 13.6623L20.4035 10.6857C20.7327 10.3538 21.1682 10.1718 21.6249 10.1718C22.0923 10.1718 22.5171 10.3538 22.8464 10.6857C23.1756 11.0176 23.3562 11.4566 23.3562 11.917C23.3562 12.3881 23.1756 12.8164 22.8464 13.1483L19.8936 16.1249C19.575 16.4568 19.1395 16.6388 18.6722 16.6388Z" fill="#509BEE"/>
<path d="M1.73127 16.6388C1.26394 16.6388 0.839083 16.4568 0.509823 16.1248C-0.169941 15.4396 -0.169941 14.3368 0.509823 13.6515L3.46255 10.6749C3.79181 10.343 4.22728 10.161 4.684 10.161C5.15133 10.161 5.57619 10.343 5.90545 10.6749C6.58521 11.3602 6.58521 12.463 5.90545 13.1483L2.95272 16.1248C2.62346 16.4568 2.18799 16.6388 1.73127 16.6388Z" fill="#FFC800"/>
<path d="M17.6632 11.2102C16.7072 11.2102 15.9319 10.4286 15.9319 9.46496V5.25709C15.9319 4.29346 16.7072 3.51184 17.6632 3.51184C18.6191 3.51184 19.3944 4.29346 19.3944 5.25709V9.46496C19.3944 10.4286 18.6191 11.2102 17.6632 11.2102Z" fill="#7F79FF"/>
<path d="M5.68245 23.2986C4.72653 23.2986 3.95117 22.517 3.95117 21.5533V17.3455C3.95117 16.3818 4.72653 15.6002 5.68245 15.6002C6.63837 15.6002 7.41372 16.3818 7.41372 17.3455V21.5533C7.41372 22.5063 6.63837 23.2986 5.68245 23.2986Z" fill="#D7F010"/>
<path d="M15.5814 21.1892C14.6255 21.1892 13.8501 20.4076 13.8501 19.444C13.8501 18.4803 14.6255 17.6987 15.5814 17.6987H19.7555C20.7115 17.6987 21.4868 18.4803 21.4868 19.444C21.4868 20.4076 20.7115 21.1892 19.7555 21.1892H15.5814Z" fill="#2FA036"/>
<path d="M3.60066 9.11172C2.64474 9.11172 1.86938 8.3301 1.86938 7.36647C1.86938 6.40283 2.64474 5.62122 3.60066 5.62122H7.77483C8.73075 5.62122 9.50611 6.40283 9.50611 7.36647C9.50611 8.3301 8.73075 9.11172 7.77483 9.11172H3.60066Z" fill="#FF6E00"/>
</svg>
