<svg width="24" height="24" viewBox="0 0 24 24" fill="none" xmlns="http://www.w3.org/2000/svg">
<path d="M12 0C5.383 0 0 5.383 0 12C0 18.617 5.383 24 12 24C18.617 24 24 18.617 24 12C24 5.383 18.617 0 12 0ZM17.262 9.385C17.268 9.498 17.27 9.611 17.27 9.725C17.27 13.202 14.623 17.214 9.782 17.214C8.296 17.214 6.912 16.777 5.747 16.03C7.121 16.191 8.519 15.823 9.644 14.941C8.493 14.918 7.521 14.158 7.186 13.112C7.583 13.187 7.989 13.173 8.374 13.066C7.17 12.826 6.263 11.761 6.263 10.487C6.263 10.476 6.263 10.464 6.263 10.452C6.618 10.649 7.025 10.767 7.455 10.782C6.749 10.309 6.284 9.505 6.284 8.592C6.284 8.11 6.414 7.658 6.64 7.268C7.938 8.861 9.877 9.91 12.065 10.018C12.02 9.826 11.997 9.624 11.997 9.419C11.997 7.965 13.176 6.787 14.63 6.787C15.387 6.787 16.07 7.106 16.551 7.619C17.151 7.5 18.501 7.353 18.501 7.353C18.147 7.882 17.776 9.013 17.262 9.385Z" fill="white"/>
</svg>
