<svg width="20" height="16" viewBox="0 0 20 16" fill="none" xmlns="http://www.w3.org/2000/svg">
<path d="M20 1.90769C19.25 2.21538 18.4688 2.46154 17.6562 2.55385C18.5 2.06154 19.1562 1.26154 19.4688 0.307692C18.6875 0.769231 17.8125 1.10769 16.875 1.29231C16.0938 0.492308 15.0312 0 13.8438 0C11.5625 0 9.75 1.81538 9.75 4.03077C9.75 4.33846 9.78125 4.64615 9.84375 4.95385C6.4375 4.8 3.40625 3.16923 1.40625 0.738461C1.0625 1.32308 0.84375 2.03077 0.84375 2.76923C0.84375 4.18462 1.5625 5.41538 2.65625 6.12308C1.96875 6.09231 1.34375 5.90769 0.8125 5.63077C0.8125 5.66154 0.8125 5.66154 0.8125 5.69231C0.8125 7.66154 2.21875 9.29231 4.09375 9.66154C3.75 9.75385 3.375 9.81539 3 9.81539C2.75 9.81539 2.46875 9.78462 2.21875 9.75385C2.75 11.3538 4.25 12.5231 6.0625 12.5538C4.65625 13.6308 2.875 14.2769 0.96875 14.2769C0.625 14.2769 0.3125 14.2462 0 14.2154C1.8125 15.3231 3.96875 16 6.28125 16C13.8438 16 17.9688 9.84615 17.9688 4.49231C17.9688 4.30769 17.9688 4.15385 17.9688 3.96923C18.75 3.41538 19.4375 2.70769 20 1.90769Z" fill="#999999"/>
</svg>
