<svg width="24" height="24" viewBox="0 0 24 24" fill="none" xmlns="http://www.w3.org/2000/svg">
<path d="M10.752 9.06801C10.598 8.97801 10.407 8.97701 10.251 9.06601C10.096 9.15601 10 9.32001 10 9.50001V14.406C10 14.584 10.094 14.748 10.247 14.838C10.325 14.885 10.413 14.906 10.5 14.906C10.584 14.906 10.669 14.885 10.745 14.843L15.028 12.436C15.184 12.348 15.281 12.184 15.283 12.004C15.284 11.824 15.19 11.658 15.035 11.569L10.752 9.06801Z" fill="white"/>
<path d="M12 0C5.383 0 0 5.383 0 12C0 18.617 5.383 24 12 24C18.617 24 24 18.617 24 12C24 5.383 18.617 0 12 0ZM19 14.256C19 15.769 17.77 17 16.258 17H7.741C6.229 17 5 15.769 5 14.256V9.743C5 8.231 6.229 7 7.741 7H16.258C17.77 7 19 8.231 19 9.743V14.256Z" fill="white"/>
</svg>
