<svg width="23" height="16" viewBox="0 0 23 16" fill="none" xmlns="http://www.w3.org/2000/svg">
<path d="M22.19 3.44124C22.19 3.44124 21.98 1.88027 21.315 1.17073C20.475 0.283814 19.495 0.248337 19.075 0.21286C15.89 1.26875e-07 11.2 0 11.2 0C11.2 0 6.51 1.26875e-07 3.36 0.21286C2.905 0.248337 1.96 0.283814 1.12 1.17073C0.455 1.84479 0.245 3.44124 0.245 3.44124C0.245 3.44124 0 5.28603 0 7.13082V8.86918C0 10.714 0.21 12.5588 0.21 12.5588C0.21 12.5588 0.42 14.1197 1.085 14.8293C1.925 15.7162 3.045 15.7162 3.57 15.7871C5.355 15.9645 11.2 16 11.2 16C11.2 16 15.89 16 19.04 15.7517C19.495 15.7162 20.44 15.6807 21.28 14.7938C21.945 14.1197 22.155 12.5233 22.155 12.5233C22.155 12.5233 22.4 10.6785 22.4 8.8337V7.09534C22.4 5.28603 22.19 3.44124 22.19 3.44124ZM8.89 10.9268V4.54102L14.945 7.73392L8.89 10.9268Z" fill="#999999"/>
</svg>
