<svg width="123" height="36" viewBox="0 0 123 36" fill="none" xmlns="http://www.w3.org/2000/svg">
<path d="M4 0.5H119C120.933 0.5 122.5 2.067 122.5 4V32C122.5 33.933 120.933 35.5 119 35.5H4C2.067 35.5 0.5 33.933 0.5 32V4C0.5 2.067 2.067 0.5 4 0.5Z" fill="black" stroke="white"/>
<path d="M46.9067 28H48.874L44.5493 16.022H42.5405L38.2158 28H40.1499L41.2456 24.7627H45.811L46.9067 28ZM43.5034 18.0142H43.5532L45.3379 23.2686H41.7188L43.5034 18.0142ZM54.6969 19.1265C53.4351 19.1265 52.4307 19.7656 51.9161 20.77H51.8829V19.2676H50.148V30.8887H51.941V26.564H51.9825C52.4805 27.5352 53.4766 28.1494 54.7301 28.1494C56.9215 28.1494 58.3741 26.3979 58.3741 23.6338C58.3741 20.8696 56.9132 19.1265 54.6969 19.1265ZM54.2237 26.6304C52.8458 26.6304 51.9327 25.4517 51.9327 23.6338C51.9327 21.8325 52.8541 20.6372 54.2237 20.6372C55.6431 20.6372 56.5313 21.8076 56.5313 23.6338C56.5313 25.4683 55.6431 26.6304 54.2237 26.6304ZM64.4792 19.1265C63.2174 19.1265 62.213 19.7656 61.6984 20.77H61.6652V19.2676H59.9303V30.8887H61.7233V26.564H61.7648C62.2629 27.5352 63.2589 28.1494 64.5124 28.1494C66.7038 28.1494 68.1564 26.3979 68.1564 23.6338C68.1564 20.8696 66.6955 19.1265 64.4792 19.1265ZM64.006 26.6304C62.6281 26.6304 61.715 25.4517 61.715 23.6338C61.715 21.8325 62.6364 20.6372 64.006 20.6372C65.4254 20.6372 66.3136 21.8076 66.3136 23.6338C66.3136 25.4683 65.4254 26.6304 64.006 26.6304ZM73.0203 24.6631C73.1365 26.8296 74.9295 28.1992 77.5858 28.1992C80.4246 28.1992 82.2093 26.7964 82.2093 24.5552C82.2093 22.8037 81.1883 21.8159 78.7313 21.2349L77.4114 20.9111C75.8675 20.5293 75.2366 20.0312 75.2366 19.1846C75.2366 18.1221 76.2244 17.3916 77.6688 17.3916C79.1131 17.3916 80.1009 18.1138 80.2088 19.3091H82.0184C81.9603 17.2422 80.2254 15.8228 77.6937 15.8228C75.137 15.8228 73.3358 17.2422 73.3358 19.3091C73.3358 20.9775 74.3568 22.0068 76.5565 22.5381L78.1087 22.9116C79.661 23.2935 80.3167 23.8496 80.3167 24.7793C80.3167 25.8501 79.2293 26.6304 77.7186 26.6304C76.1414 26.6304 74.9876 25.8501 74.8548 24.6631H73.0203ZM84.3549 17.2007V19.2676H83.0849V20.687H84.3549V25.7007C84.3549 27.3857 85.0438 28.0581 86.8119 28.0581C87.2104 28.0581 87.6088 28.0249 87.808 27.9751V26.5557C87.6918 26.5806 87.4013 26.5972 87.2187 26.5972C86.4882 26.5972 86.1562 26.2568 86.1562 25.5015V20.687H87.8163V19.2676H86.1562V17.2007H84.3549ZM93 28.166C95.4985 28.166 97.1421 26.4478 97.1421 23.6338C97.1421 20.8281 95.4902 19.1099 93 19.1099C90.5097 19.1099 88.8579 20.8281 88.8579 23.6338C88.8579 26.4478 90.5014 28.166 93 28.166ZM93 26.6885C91.5971 26.6885 90.6841 25.5762 90.6841 23.6338C90.6841 21.6997 91.5971 20.5874 93 20.5874C94.4028 20.5874 95.3159 21.6997 95.3159 23.6338C95.3159 25.5762 94.4111 26.6885 93 26.6885ZM98.6983 28H100.491V22.7705C100.491 21.5337 101.205 20.7617 102.359 20.7617C102.708 20.7617 103.023 20.8032 103.164 20.8613V19.1929C103.031 19.168 102.807 19.1265 102.55 19.1265C101.521 19.1265 100.74 19.7324 100.45 20.7534H100.408V19.2676H98.6983V28ZM107.717 20.5542C108.97 20.5542 109.817 21.4922 109.859 22.8286H105.492C105.584 21.5088 106.464 20.5542 107.717 20.5542ZM109.85 25.4351C109.61 26.1987 108.854 26.7134 107.833 26.7134C106.397 26.7134 105.484 25.709 105.484 24.1899V24.082H111.652V23.4678C111.652 20.8198 110.141 19.1099 107.717 19.1099C105.252 19.1099 103.674 20.936 103.674 23.6753C103.674 26.4312 105.227 28.166 107.792 28.166C109.792 28.166 111.303 27.0288 111.552 25.4351H109.85Z" fill="white"/>
<path d="M39.5845 5.65869V12H41.8213C43.7109 12 44.8228 10.8223 44.8228 8.81836C44.8228 6.81885 43.7065 5.65869 41.8213 5.65869H39.5845ZM40.5688 6.50684H41.729C43.0693 6.50684 43.8164 7.33301 43.8164 8.82715C43.8164 10.3257 43.0737 11.1475 41.729 11.1475H40.5688V6.50684ZM48.0853 12.0879C49.408 12.0879 50.2781 11.1782 50.2781 9.68848C50.2781 8.20312 49.4036 7.29346 48.0853 7.29346C46.7669 7.29346 45.8924 8.20312 45.8924 9.68848C45.8924 11.1782 46.7625 12.0879 48.0853 12.0879ZM48.0853 11.3057C47.3426 11.3057 46.8592 10.7168 46.8592 9.68848C46.8592 8.66455 47.3426 8.07568 48.0853 8.07568C48.8279 8.07568 49.3113 8.66455 49.3113 9.68848C49.3113 10.7168 48.8323 11.3057 48.0853 11.3057ZM57.544 7.37695H56.6036L55.7599 11.0156H55.7379L54.7711 7.37695H53.857L52.8946 11.0156H52.8771L52.0333 7.37695H51.0841L52.3541 12H53.3341L54.2965 8.53711H54.3185L55.2896 12H56.2784L57.544 7.37695ZM58.5741 12H59.5233V9.30615C59.5233 8.58984 59.954 8.11523 60.622 8.11523C61.2812 8.11523 61.6063 8.49756 61.6063 9.19189V12H62.56V9.00732C62.56 7.94824 61.9755 7.29785 60.956 7.29785C60.244 7.29785 59.7519 7.62305 59.5014 8.15039H59.4794V7.37695H58.5741V12ZM63.9636 12H64.9128V5.65869H63.9636V12ZM68.3247 12.0879C69.6475 12.0879 70.5176 11.1782 70.5176 9.68848C70.5176 8.20312 69.6431 7.29346 68.3247 7.29346C67.0063 7.29346 66.1318 8.20312 66.1318 9.68848C66.1318 11.1782 67.002 12.0879 68.3247 12.0879ZM68.3247 11.3057C67.582 11.3057 67.0986 10.7168 67.0986 9.68848C67.0986 8.66455 67.582 8.07568 68.3247 8.07568C69.0674 8.07568 69.5508 8.66455 69.5508 9.68848C69.5508 10.7168 69.0718 11.3057 68.3247 11.3057ZM73.3187 11.3276C72.8089 11.3276 72.4749 11.064 72.4749 10.6597C72.4749 10.2642 72.7957 10.0137 73.3626 9.97412L74.5008 9.90381V10.2686C74.5008 10.8706 73.9822 11.3276 73.3187 11.3276ZM73.055 12.0791C73.6614 12.0791 74.2459 11.7539 74.514 11.2397H74.5359V12H75.4456V8.81396C75.4456 7.88672 74.7293 7.29346 73.6087 7.29346C72.4661 7.29346 71.7542 7.90869 71.7015 8.74365H72.5979C72.6814 8.33057 73.0242 8.06689 73.5735 8.06689C74.1536 8.06689 74.5008 8.37451 74.5008 8.88867V9.24463L73.2352 9.31934C72.1365 9.38086 71.5169 9.87744 71.5169 10.686C71.5169 11.5166 72.1497 12.0791 73.055 12.0791ZM78.5543 12.0791C79.2267 12.0791 79.754 11.7407 80.0265 11.2134H80.044V12H80.9669V5.65869H80.0133V8.146H79.9957C79.7364 7.63623 79.2091 7.30225 78.5455 7.30225C77.3853 7.30225 76.6119 8.22949 76.6119 9.68848C76.6119 11.1475 77.3853 12.0791 78.5543 12.0791ZM78.8048 8.10205C79.5343 8.10205 80.0221 8.73047 80.0221 9.68848C80.0221 10.6553 79.5343 11.2749 78.8048 11.2749C78.0533 11.2749 77.5831 10.6641 77.5831 9.68848C77.5831 8.71729 78.0533 8.10205 78.8048 8.10205ZM86.6569 12.0879C87.9797 12.0879 88.8498 11.1782 88.8498 9.68848C88.8498 8.20312 87.9753 7.29346 86.6569 7.29346C85.3386 7.29346 84.4641 8.20312 84.4641 9.68848C84.4641 11.1782 85.3342 12.0879 86.6569 12.0879ZM86.6569 11.3057C85.9143 11.3057 85.4309 10.7168 85.4309 9.68848C85.4309 8.66455 85.9143 8.07568 86.6569 8.07568C87.3996 8.07568 87.883 8.66455 87.883 9.68848C87.883 10.7168 87.404 11.3057 86.6569 11.3057ZM90.0337 12H90.9829V9.30615C90.9829 8.58984 91.4136 8.11523 92.0815 8.11523C92.7407 8.11523 93.0659 8.49756 93.0659 9.19189V12H94.0195V9.00732C94.0195 7.94824 93.4351 7.29785 92.4155 7.29785C91.7036 7.29785 91.2114 7.62305 90.9609 8.15039H90.939V7.37695H90.0337V12ZM97.943 6.28271V7.37695H97.2706V8.12842H97.943V10.7827C97.943 11.6748 98.3077 12.0308 99.2437 12.0308C99.4547 12.0308 99.6656 12.0132 99.7711 11.9868V11.2354C99.7096 11.2485 99.5558 11.2573 99.4591 11.2573C99.0724 11.2573 98.8966 11.0771 98.8966 10.6772V8.12842H99.7755V7.37695H98.8966V6.28271H97.943ZM101.043 12H101.992V9.32812C101.992 8.59863 102.423 8.11523 103.126 8.11523C103.794 8.11523 104.137 8.52393 104.137 9.20508V12H105.09V9.02051C105.09 7.97461 104.484 7.29785 103.469 7.29785C102.766 7.29785 102.26 7.60986 102.005 8.15039H101.983V5.65869H101.043V12ZM108.392 8.05811C109.056 8.05811 109.504 8.55469 109.526 9.26221H107.215C107.263 8.56348 107.729 8.05811 108.392 8.05811ZM109.522 10.6421C109.394 11.0464 108.994 11.3188 108.454 11.3188C107.694 11.3188 107.21 10.7871 107.21 9.98291V9.92578H110.475V9.60059C110.475 8.19873 109.675 7.29346 108.392 7.29346C107.087 7.29346 106.252 8.26025 106.252 9.71045C106.252 11.1694 107.074 12.0879 108.432 12.0879C109.491 12.0879 110.291 11.4858 110.423 10.6421H109.522Z" fill="white"/>
<path d="M25.1859 18.3437C25.1583 15.4638 27.4912 14.0822 27.5978 14.0134C26.2853 12.06 24.2412 11.7919 23.5138 11.7606C21.7751 11.5811 20.1214 12.803 19.2382 12.803C18.3591 12.803 16.9954 11.7866 15.5548 11.8127C13.6583 11.843 11.9103 12.9355 10.9339 14.6645C8.96565 18.1434 10.4318 23.2991 12.3509 26.1237C13.2874 27.5042 14.4072 29.0558 15.8745 28.9984C17.2894 28.9421 17.8232 28.0677 19.5322 28.0677C21.2423 28.0677 21.7218 28.9984 23.2187 28.9703C24.7392 28.9431 25.7044 27.5637 26.6347 26.178C27.7126 24.5742 28.1552 23.0236 28.1818 22.9433C28.147 22.9266 25.2156 21.7829 25.1859 18.3437Z" fill="white"/>
<path d="M22.5558 8.83261C23.3786 7.81629 23.9339 6.40658 23.7833 5C22.5978 5.04904 21.1613 5.80242 20.3109 6.81666C19.5486 7.71612 18.8816 9.15087 19.0599 10.5314C20.3827 10.6357 21.732 9.84581 22.5558 8.83261Z" fill="white"/>
</svg>
