<svg width="123" height="36" viewBox="0 0 123 36" fill="none" xmlns="http://www.w3.org/2000/svg">
<path d="M4 0.5H119C120.933 0.5 122.5 2.067 122.5 4V32C122.5 33.933 120.933 35.5 119 35.5H4C2.067 35.5 0.5 33.933 0.5 32V4C0.5 2.067 2.067 0.5 4 0.5Z" fill="black" stroke="white"/>
<path d="M10.2639 28.6607L20.7858 18.3047L10.1857 8.02273C9.73822 7.95273 9.27648 8.04373 8.88533 8.30473C8.33391 8.67173 8 9.30973 8 9.99273V26.6957C8 27.3797 8.33391 28.0167 8.88533 28.3837C9.29937 28.6607 9.79356 28.7547 10.2639 28.6607Z" fill="#00D6FF"/>
<path d="M24.288 14.8597L12.8245 9.21973L21.4841 17.6187L24.288 14.8597Z" fill="#00F076"/>
<path d="M21.4888 18.9877L12.9113 27.4287L24.3757 21.7877L21.4888 18.9877Z" fill="#EA2C4E"/>
<path d="M27.6938 16.5338L25.2182 15.3168L22.1863 18.2988L25.3078 21.3278L27.6929 20.1538C28.3626 19.8238 28.79 19.1188 28.79 18.3428C28.791 17.5708 28.3636 16.8638 27.6938 16.5338Z" fill="#FFD100"/>
<path d="M41.6338 12.1914C41.3965 12.4756 41.061 12.6968 40.6274 12.855C40.1938 13.0103 39.7134 13.0879 39.186 13.0879C38.6323 13.0879 38.146 12.9678 37.7271 12.7275C37.311 12.4844 36.9888 12.1328 36.7603 11.6729C36.5347 11.2129 36.4189 10.6724 36.4131 10.0513V9.61621C36.4131 8.97754 36.52 8.42529 36.7339 7.95947C36.9507 7.49072 37.2612 7.1333 37.6655 6.88721C38.0728 6.63818 38.5488 6.51367 39.0938 6.51367C39.8525 6.51367 40.4458 6.69531 40.8735 7.05859C41.3013 7.41895 41.5547 7.94482 41.6338 8.63623H40.3506C40.292 8.27002 40.1616 8.00195 39.9595 7.83203C39.7603 7.66211 39.4849 7.57715 39.1333 7.57715C38.6851 7.57715 38.3438 7.74561 38.1094 8.08252C37.875 8.41943 37.7563 8.92041 37.7534 9.58545V9.99414C37.7534 10.665 37.8809 11.1719 38.1357 11.5146C38.3906 11.8574 38.7642 12.0288 39.2563 12.0288C39.7515 12.0288 40.1045 11.9233 40.3154 11.7124V10.6094H39.1157V9.63818H41.6338V12.1914ZM46.5557 10.2271H44.0244V11.9409H46.9951V13H42.7061V6.60156H46.9863V7.66943H44.0244V9.19434H46.5557V10.2271ZM52.6729 7.66943H50.7129V13H49.3945V7.66943H47.4609V6.60156H52.6729V7.66943ZM56.8081 13H55.4897V6.60156H56.8081V13ZM62.7188 7.66943H60.7588V13H59.4404V7.66943H57.5068V6.60156H62.7188V7.66943ZM70.708 9.9458C70.708 10.5757 70.5967 11.1279 70.374 11.6025C70.1514 12.0771 69.832 12.4434 69.416 12.7012C69.0029 12.959 68.5283 13.0879 67.9922 13.0879C67.4619 13.0879 66.9888 12.9604 66.5728 12.7056C66.1567 12.4507 65.8345 12.0874 65.606 11.6157C65.3774 11.1411 65.2617 10.5962 65.2588 9.98096V9.66455C65.2588 9.03467 65.3716 8.48096 65.5972 8.00342C65.8257 7.52295 66.1465 7.15527 66.5596 6.90039C66.9756 6.64258 67.4502 6.51367 67.9834 6.51367C68.5166 6.51367 68.9897 6.64258 69.4028 6.90039C69.8188 7.15527 70.1396 7.52295 70.3652 8.00342C70.5938 8.48096 70.708 9.0332 70.708 9.66016V9.9458ZM69.3721 9.65576C69.3721 8.98486 69.252 8.4751 69.0117 8.12646C68.7715 7.77783 68.4287 7.60352 67.9834 7.60352C67.541 7.60352 67.1997 7.77637 66.9595 8.12207C66.7192 8.46484 66.5977 8.96875 66.5947 9.63379V9.9458C66.5947 10.5991 66.7148 11.106 66.9551 11.4663C67.1953 11.8267 67.541 12.0068 67.9922 12.0068C68.4346 12.0068 68.7744 11.834 69.0117 11.4883C69.249 11.1396 69.3691 10.6328 69.3721 9.96777V9.65576ZM76.8691 13H75.5508L72.9844 8.79004V13H71.666V6.60156H72.9844L75.5552 10.8203V6.60156H76.8691V13Z" fill="white"/>
<path d="M44.2578 26.4371C43.8721 26.9401 43.3374 27.3209 42.6538 27.5797C41.9702 27.8385 41.1938 27.9679 40.3247 27.9679C39.4312 27.9679 38.6401 27.7653 37.9517 27.36C37.2632 26.9547 36.731 26.3761 36.355 25.6241C35.9839 24.8673 35.791 23.986 35.7764 22.9801V22.1451C35.7764 20.5338 36.1621 19.2765 36.9336 18.3732C37.7051 17.465 38.7817 17.0109 40.1636 17.0109C41.3501 17.0109 42.2925 17.3038 42.9907 17.8898C43.689 18.4757 44.1089 19.3204 44.2505 20.424H42.4341C42.229 19.1398 41.4844 18.4977 40.2002 18.4977C39.3701 18.4977 38.7378 18.798 38.3032 19.3986C37.8735 19.9943 37.6514 20.8707 37.6367 22.028V22.8483C37.6367 24.0006 37.8784 24.8966 38.3618 25.5363C38.8501 26.171 39.5264 26.4884 40.3906 26.4884C41.3379 26.4884 42.0117 26.2736 42.4121 25.8439V23.7565H40.2148V22.3502H44.2578V26.4371ZM45.6386 23.7858C45.6386 23.0094 45.7924 22.3112 46.1 21.691C46.4076 21.066 46.8397 20.5875 47.3964 20.2555C47.953 19.9186 48.5927 19.7501 49.3153 19.7501C50.3847 19.7501 51.2514 20.0944 51.9154 20.7828C52.5844 21.4713 52.9457 22.3844 52.9994 23.5221L53.0067 23.9396C53.0067 24.7208 52.8554 25.4191 52.5526 26.0343C52.2548 26.6495 51.8251 27.1256 51.2636 27.4625C50.7069 27.7994 50.0624 27.9679 49.33 27.9679C48.2118 27.9679 47.3158 27.5968 46.642 26.8546C45.973 26.1075 45.6386 25.1139 45.6386 23.8737V23.7858ZM47.4184 23.9396C47.4184 24.755 47.5868 25.3947 47.9237 25.8585C48.2606 26.3175 48.7294 26.547 49.33 26.547C49.9306 26.547 50.3969 26.3126 50.7289 25.8439C51.0658 25.3751 51.2343 24.6891 51.2343 23.7858C51.2343 22.985 51.0609 22.3502 50.7143 21.8815C50.3725 21.4127 49.9062 21.1783 49.3153 21.1783C48.7343 21.1783 48.2729 21.4103 47.9311 21.8741C47.5893 22.3331 47.4184 23.0216 47.4184 23.9396ZM54.0286 23.7858C54.0286 23.0094 54.1824 22.3112 54.49 21.691C54.7977 21.066 55.2298 20.5875 55.7864 20.2555C56.3431 19.9186 56.9827 19.7501 57.7054 19.7501C58.7747 19.7501 59.6414 20.0944 60.3055 20.7828C60.9744 21.4713 61.3357 22.3844 61.3895 23.5221L61.3968 23.9396C61.3968 24.7208 61.2454 25.4191 60.9427 26.0343C60.6448 26.6495 60.2151 27.1256 59.6536 27.4625C59.097 27.7994 58.4524 27.9679 57.72 27.9679C56.6019 27.9679 55.7059 27.5968 55.032 26.8546C54.3631 26.1075 54.0286 25.1139 54.0286 23.8737V23.7858ZM55.8084 23.9396C55.8084 24.755 55.9769 25.3947 56.3138 25.8585C56.6507 26.3175 57.1194 26.547 57.72 26.547C58.3206 26.547 58.7869 26.3126 59.1189 25.8439C59.4559 25.3751 59.6243 24.6891 59.6243 23.7858C59.6243 22.985 59.451 22.3502 59.1043 21.8815C58.7625 21.4127 58.2962 21.1783 57.7054 21.1783C57.1243 21.1783 56.6629 21.4103 56.3211 21.8741C55.9793 22.3331 55.8084 23.0216 55.8084 23.9396ZM62.4406 23.8004C62.4406 22.5699 62.7287 21.5885 63.3049 20.8561C63.8859 20.1188 64.655 19.7501 65.612 19.7501C66.5153 19.7501 67.2258 20.0651 67.7434 20.6949L67.8239 19.8966H69.4279V27.5797C69.4279 28.6198 69.1032 29.4401 68.4538 30.0406C67.8093 30.6412 66.9377 30.9415 65.8391 30.9415C65.258 30.9415 64.6892 30.8195 64.1325 30.5753C63.5808 30.3361 63.1608 30.0211 62.8728 29.6305L63.715 28.5612C64.2619 29.2106 64.9357 29.5353 65.7365 29.5353C66.3273 29.5353 66.7937 29.3741 67.1355 29.0519C67.4772 28.7345 67.6481 28.2657 67.6481 27.6456V27.111C67.1355 27.6823 66.4519 27.9679 65.5974 27.9679C64.6696 27.9679 63.9104 27.5992 63.3195 26.8619C62.7336 26.1246 62.4406 25.1041 62.4406 23.8004ZM64.2131 23.9542C64.2131 24.7501 64.3742 25.3776 64.6965 25.8365C65.0236 26.2906 65.4753 26.5177 66.0515 26.5177C66.7692 26.5177 67.3015 26.2101 67.6481 25.5948V22.1085C67.3112 21.5079 66.7839 21.2076 66.0661 21.2076C65.4802 21.2076 65.0236 21.4396 64.6965 21.9034C64.3742 22.3673 64.2131 23.0509 64.2131 23.9542ZM73.006 27.8214H71.2262V16.5714H73.006V27.8214ZM78.2905 27.9679C77.1626 27.9679 76.2471 27.6139 75.5439 26.9059C74.8457 26.193 74.4966 25.2457 74.4966 24.0641V23.8444C74.4966 23.0533 74.6479 22.3478 74.9507 21.7277C75.2583 21.1027 75.688 20.6168 76.2397 20.2701C76.7915 19.9235 77.4067 19.7501 78.0854 19.7501C79.1646 19.7501 79.9971 20.0944 80.583 20.7828C81.1738 21.4713 81.4692 22.4454 81.4692 23.7052V24.423H76.291C76.3447 25.0773 76.562 25.5948 76.9429 25.9757C77.3286 26.3566 77.812 26.547 78.3931 26.547C79.2085 26.547 79.8726 26.2174 80.3853 25.5582L81.3447 26.4738C81.0273 26.9474 80.6025 27.316 80.0703 27.5797C79.543 27.8385 78.9497 27.9679 78.2905 27.9679ZM78.0781 21.1783C77.5898 21.1783 77.1943 21.3492 76.8916 21.691C76.5938 22.0328 76.4033 22.5089 76.3203 23.1193H79.7114V22.9874C79.6724 22.3917 79.5137 21.9425 79.2354 21.6398C78.957 21.3322 78.5713 21.1783 78.0781 21.1783ZM88.3177 23.859V27.8214H86.4646V17.1573H90.5442C91.7356 17.1573 92.6805 17.4674 93.3787 18.0875C94.0818 18.7076 94.4334 19.528 94.4334 20.5485C94.4334 21.5934 94.0892 22.4064 93.4007 22.9874C92.7171 23.5685 91.7576 23.859 90.5223 23.859H88.3177ZM88.3177 22.3722H90.5442C91.2034 22.3722 91.7063 22.2184 92.053 21.9108C92.3997 21.5983 92.573 21.149 92.573 20.5631C92.573 19.9869 92.3973 19.528 92.0457 19.1862C91.6941 18.8395 91.2107 18.6613 90.5955 18.6515H88.3177V22.3722ZM97.6306 27.8214H95.8508V16.5714H97.6306V27.8214ZM104.16 27.8214C104.082 27.67 104.014 27.4235 103.955 27.0817C103.389 27.6725 102.695 27.9679 101.875 27.9679C101.079 27.9679 100.43 27.7408 99.9269 27.2867C99.4239 26.8326 99.1725 26.2711 99.1725 25.6022C99.1725 24.7574 99.485 24.1105 100.11 23.6613C100.74 23.2072 101.638 22.9801 102.805 22.9801H103.897V22.4601C103.897 22.0499 103.782 21.7228 103.552 21.4786C103.323 21.2296 102.974 21.1051 102.505 21.1051C102.1 21.1051 101.768 21.2076 101.509 21.4127C101.25 21.6129 101.121 21.8693 101.121 22.1818H99.3409C99.3409 21.7472 99.485 21.3419 99.773 20.9659C100.061 20.5851 100.452 20.2872 100.945 20.0724C101.443 19.8575 101.997 19.7501 102.608 19.7501C103.535 19.7501 104.275 19.9845 104.827 20.4532C105.379 20.9171 105.662 21.5714 105.676 22.4161V25.9904C105.676 26.7032 105.776 27.2721 105.977 27.6969V27.8214H104.16ZM102.205 26.5397C102.556 26.5397 102.886 26.4542 103.193 26.2833C103.506 26.1124 103.74 25.8829 103.897 25.5948V24.1007H102.937C102.278 24.1007 101.782 24.2155 101.45 24.4449C101.118 24.6744 100.952 24.9991 100.952 25.4191C100.952 25.7609 101.065 26.0343 101.289 26.2394C101.519 26.4396 101.824 26.5397 102.205 26.5397ZM110.045 25.2726L111.657 19.8966H113.554L110.404 29.0226C109.921 30.3556 109.101 31.0221 107.943 31.0221C107.685 31.0221 107.399 30.9781 107.086 30.8903V29.5133L107.423 29.5353C107.873 29.5353 108.209 29.4523 108.434 29.2863C108.664 29.1251 108.844 28.8517 108.976 28.4659L109.232 27.7848L106.449 19.8966H108.368L110.045 25.2726Z" fill="white"/>
</svg>
